<svg width="135" height="35" viewBox="0 0 135 35" fill="none" xmlns="http://www.w3.org/2000/svg">
<path d="M6.84 29.54C6.54667 29.4867 6.22667 29.3133 5.88 29.02C5.53333 28.7 5.21333 28.3533 4.92 27.98C4.65333 27.58 4.48 27.2467 4.4 26.98C4.4 26.9267 4.36 26.86 4.28 26.78C4.22667 26.7 4.2 26.66 4.2 26.66C4.09333 26.58 4.02667 26.2333 4 25.62C4 24.98 4.04 24.2733 4.12 23.5C4.2 22.7267 4.29333 22.1133 4.4 21.66C4.53333 21.2333 4.73333 20.66 5 19.94C5.26667 19.1933 5.49333 18.5267 5.68 17.94L6.76 15.62L5.16 15.18C4.97333 15.1267 4.81333 15.02 4.68 14.86C4.57333 14.7 4.52 14.5667 4.52 14.46C4.52 14.2467 4.64 13.94 4.88 13.54C5.12 13.14 5.29333 12.94 5.4 12.94C5.53333 12.9667 5.77333 12.98 6.12 12.98C6.49333 12.98 6.85333 12.9667 7.2 12.94C7.54667 12.9133 7.76 12.8867 7.84 12.86C7.94667 12.8067 8.05333 12.74 8.16 12.66C8.26667 12.5533 8.34667 12.4067 8.4 12.22C8.53333 11.9267 8.65333 11.7 8.76 11.54C8.86667 11.38 9.01333 11.14 9.2 10.82C9.38667 10.4733 9.53333 10.18 9.64 9.94C9.77333 9.7 9.97333 9.36667 10.24 8.94C10.3733 8.75333 10.52 8.52667 10.68 8.26C10.84 7.99333 11.04 7.76667 11.28 7.58C11.52 7.36666 11.9067 7.22 12.44 7.14C13 7.03333 13.48 7.15333 13.88 7.5C14.0933 7.76667 14.2133 8.02 14.24 8.26C14.2667 8.5 14.16 8.80667 13.92 9.18C13.7067 9.63333 13.4533 10.0467 13.16 10.42C12.8933 10.7667 12.64 11.1667 12.4 11.62C11.9733 12.2067 11.8933 12.54 12.16 12.62C12.4267 12.7 13.1733 12.6467 14.4 12.46C15.1733 12.3267 15.7333 12.4067 16.08 12.7C16.4267 12.9933 16.6267 13.3667 16.68 13.82C16.76 14.46 16.6933 14.8467 16.48 14.98C16.2667 15.1133 15.6533 15.18 14.64 15.18C14 15.2867 13.4533 15.3533 13 15.38C12.5467 15.38 12.2133 15.38 12 15.38C11.6533 15.4067 11.4267 15.42 11.32 15.42C11.2133 15.42 11.0533 15.4467 10.84 15.5C10.6267 15.5533 10.4667 15.6467 10.36 15.78C10.28 15.8867 10.1867 16.0467 10.08 16.26C9.97333 16.3667 9.81333 16.6467 9.6 17.1C9.38667 17.5533 9.12 18.0467 8.8 18.58C8.42667 19.7 8.10667 20.78 7.84 21.82C7.6 22.8333 7.38667 23.8467 7.2 24.86C7.12 25.3667 7.13333 25.74 7.24 25.98C7.37333 26.1933 7.72 26.3267 8.28 26.38C8.57333 26.4067 9 26.4067 9.56 26.38C10.12 26.3267 10.5867 26.2467 10.96 26.14C11.2533 26.0067 11.56 25.8733 11.88 25.74C12.2 25.58 12.4933 25.42 12.76 25.26C13 25.1267 13.24 24.9933 13.48 24.86C13.72 24.7 13.84 24.62 13.84 24.62C13.9733 24.4067 14.16 24.4467 14.4 24.74C14.6667 25.0067 14.8533 25.3 14.96 25.62C14.96 25.94 14.8933 26.3267 14.76 26.78C14.6267 27.2067 14.1333 27.66 13.28 28.14C12.08 28.8867 10.88 29.34 9.68 29.5C8.48 29.66 7.53333 29.6733 6.84 29.54ZM17.5575 28.82C17.3442 28.6067 17.1842 28.2867 17.0775 27.86C16.9975 27.4333 16.9708 27.02 16.9975 26.62C17.0242 26.1933 17.0908 25.8733 17.1975 25.66C17.1975 25.4467 17.2242 25.2867 17.2775 25.18C17.3575 25.0467 17.3842 24.9267 17.3575 24.82C17.3308 24.7133 17.3575 24.5267 17.4375 24.26C17.5175 23.9933 17.5975 23.74 17.6775 23.5C17.8642 23.0733 18.0775 22.5267 18.3175 21.86C18.5575 21.1667 18.7975 20.4733 19.0375 19.78C19.2775 19.06 19.4775 18.4467 19.6375 17.94C19.7975 17.4067 19.8908 17.0867 19.9175 16.98C19.9175 16.66 20.1308 16.4867 20.5575 16.46C20.8775 16.3533 21.2642 16.4867 21.7175 16.86C22.1708 17.2333 22.5308 17.6333 22.7975 18.06C23.0108 18.2733 23.0908 18.5533 23.0375 18.9C22.9842 19.2467 22.8108 19.74 22.5175 20.38C22.4108 20.5933 22.2775 20.9533 22.1175 21.46C21.9842 21.94 21.8908 22.34 21.8375 22.66C21.7308 22.8733 21.5975 23.18 21.4375 23.58C21.3042 23.9533 21.1842 24.3133 21.0775 24.66C21.0242 24.7933 20.9708 25.0467 20.9175 25.42C20.8642 25.7667 20.7975 26.1267 20.7175 26.5C20.6375 26.8733 20.5308 27.1667 20.3975 27.38C20.1575 28.4733 19.7308 29.1133 19.1175 29.3C18.5308 29.4867 18.0108 29.3267 17.5575 28.82ZM21.8775 12.78C21.5842 12.5667 21.3575 12.3133 21.1975 12.02C21.0642 11.7 20.9842 11.42 20.9575 11.18C20.9575 10.94 20.9842 10.7933 21.0375 10.74C21.3042 10.4467 21.5308 10.06 21.7175 9.58C21.9308 9.1 22.1575 8.66 22.3975 8.26C22.4508 8.18 22.5175 8.07333 22.5975 7.94C22.7042 7.78 22.8108 7.68667 22.9175 7.66C23.2375 7.44667 23.6775 7.46 24.2375 7.7C24.8242 7.94 25.2508 8.27333 25.5175 8.7C25.7575 9.20666 25.8242 9.72666 25.7175 10.26C25.6375 10.7933 25.3575 11.3533 24.8775 11.94C24.4775 12.4733 23.9708 12.82 23.3575 12.98C22.7442 13.1133 22.2508 13.0467 21.8775 12.78ZM26.3291 29.22C25.9291 29.0867 25.5691 28.8733 25.2491 28.58C24.9557 28.2867 24.8357 27.8067 24.8891 27.14C24.9424 26.74 25.0224 26.3267 25.1291 25.9C25.2357 25.4467 25.3691 25.0067 25.5291 24.58C25.6091 24.1 25.7024 23.62 25.8091 23.14C25.9424 22.66 26.1557 22.2067 26.4491 21.78C26.7957 20.7933 27.1557 19.82 27.5291 18.86C27.9024 17.8733 28.2224 16.8467 28.4891 15.78C28.8891 14.82 29.2491 13.9667 29.5691 13.22C29.9157 12.4733 30.3291 11.5133 30.8091 10.34C31.0757 9.72667 31.3024 9.04667 31.4891 8.3C31.7024 7.52667 32.0224 6.84667 32.4491 6.26C32.6357 6.02 32.7691 5.82 32.8491 5.66C32.9557 5.47333 33.0624 5.3 33.1691 5.14C33.3557 4.76667 33.6357 4.59333 34.0091 4.62C34.4091 4.64666 34.6757 4.75333 34.8091 4.94C35.2624 5.12666 35.5824 5.47333 35.7691 5.98C35.9557 6.46 36.0224 6.80666 35.9691 7.02C35.9691 7.31333 35.8624 7.63333 35.6491 7.98C35.5424 8.08666 35.4357 8.24667 35.3291 8.46C35.2224 8.64666 35.0624 8.9 34.8491 9.22C34.7424 9.56667 34.6357 9.91333 34.5291 10.26C34.4224 10.6067 34.3024 10.9267 34.1691 11.22C34.0357 11.5133 33.8891 11.8067 33.7291 12.1C33.5691 12.3933 33.4624 12.6333 33.4091 12.82C33.1691 13.4333 32.9024 14.0333 32.6091 14.62C32.3424 15.18 32.1024 15.78 31.8891 16.42C31.6757 17.0333 31.4491 17.6867 31.2091 18.38C30.9691 19.0467 30.6624 19.6867 30.2891 20.3C30.1024 20.5667 29.9957 20.9267 29.9691 21.38C29.9691 21.8333 29.9157 22.2733 29.8091 22.7C29.6224 23.18 29.4491 23.62 29.2891 24.02C29.1557 24.42 29.0891 24.6733 29.0891 24.78C28.9024 25.3667 28.7557 25.9533 28.6491 26.54C28.5424 27.1 28.3691 27.5933 28.1291 28.02C28.1291 28.66 27.9557 29.06 27.6091 29.22C27.2624 29.38 26.8357 29.38 26.3291 29.22ZM35.4891 29.58C35.0624 29.5267 34.7424 29.4467 34.5291 29.34C34.3157 29.2067 33.9157 28.9267 33.3291 28.5C33.0091 28.18 32.6091 27.6867 32.1291 27.02C31.6491 26.3533 31.1691 25.6467 30.6891 24.9C30.2091 24.1267 29.7824 23.4733 29.4091 22.94L31.6091 20.14C31.9557 20.5667 32.2357 20.9667 32.4491 21.34C32.6624 21.7133 32.8357 21.9667 32.9691 22.1C33.5824 23.0067 34.0624 23.74 34.4091 24.3C34.7557 24.86 35.0491 25.3133 35.2891 25.66C35.5557 26.0067 35.8491 26.3133 36.1691 26.58C36.4891 26.8467 36.9024 27.1267 37.4091 27.42C37.4891 27.4733 37.5691 27.6067 37.6491 27.82C37.7291 28.0067 37.7557 28.2067 37.7291 28.42C37.6757 28.74 37.4757 29.0067 37.1291 29.22C36.8091 29.4067 36.2624 29.5267 35.4891 29.58ZM29.6891 22.18C29.5291 21.7267 29.4891 21.22 29.5691 20.66C29.6757 20.0733 29.9024 19.6867 30.2491 19.5C30.3557 19.3133 30.4624 19.1933 30.5691 19.14C30.7024 19.06 30.7824 18.9667 30.8091 18.86C30.8624 18.7533 30.9957 18.6067 31.2091 18.42C31.4491 18.2333 31.6624 18.06 31.8491 17.9C32.2757 17.6333 32.7424 17.3133 33.2491 16.94C33.7824 16.54 34.2891 16.14 34.7691 15.74C35.2757 15.34 35.6891 14.9933 36.0091 14.7C36.3557 14.4067 36.5691 14.22 36.6491 14.14C36.7291 14.0333 36.8891 13.9667 37.1291 13.94C37.3957 13.9133 37.6491 13.9533 37.8891 14.06C38.2091 14.14 38.4624 14.3133 38.6491 14.58C38.8624 14.8467 38.9691 15.22 38.9691 15.7C39.0491 15.9933 38.8757 16.3533 38.4491 16.78C38.0491 17.18 37.5424 17.58 36.9291 17.98C36.7157 18.1133 36.4224 18.3133 36.0491 18.58C35.7024 18.8467 35.3957 19.1 35.1291 19.34C34.9424 19.4467 34.6624 19.6333 34.2891 19.9C33.9424 20.14 33.6357 20.38 33.3691 20.62C33.1557 20.7533 32.9024 20.9933 32.6091 21.34C32.3424 21.66 32.0357 21.9 31.6891 22.06C30.8357 22.86 30.3157 23.2467 30.1291 23.22C29.9691 23.1933 29.8224 22.8467 29.6891 22.18ZM44.29 30.22C42.8233 30.22 41.69 29.7933 40.89 28.94C40.1167 28.0867 39.73 26.78 39.73 25.02C39.73 24.06 39.9033 23.0067 40.25 21.86C40.6233 20.7133 41.1033 19.5933 41.69 18.5C42.3033 17.4067 42.97 16.46 43.69 15.66C44.41 14.8333 45.13 14.26 45.85 13.94C46.1167 13.8067 46.3967 13.7133 46.69 13.66C47.01 13.58 47.3167 13.54 47.61 13.54C47.93 13.54 48.2767 13.5667 48.65 13.62C49.05 13.6467 49.4233 13.7267 49.77 13.86C50.3833 14.0467 50.9167 14.4067 51.37 14.94C51.85 15.4733 52.09 16.2467 52.09 17.26C52.09 17.5267 52.0633 17.82 52.01 18.14C51.9567 18.4333 51.8633 18.7267 51.73 19.02C51.3833 19.9 50.85 20.74 50.13 21.54C49.4367 22.34 48.7033 22.9 47.93 23.22C47.7167 23.3267 47.5033 23.4067 47.29 23.46C47.1033 23.4867 46.9033 23.5 46.69 23.5C46.13 23.5 45.6233 23.42 45.17 23.26C44.7433 23.1 44.3433 22.8867 43.97 22.62L43.65 22.34L43.45 22.74C43.2633 23.2467 43.13 23.6733 43.05 24.02C42.9967 24.3667 42.97 24.62 42.97 24.78C42.97 25.1 42.9833 25.4333 43.01 25.78C43.0367 26.1 43.1167 26.3667 43.25 26.58C43.3567 26.7133 43.49 26.82 43.65 26.9C43.8367 26.98 44.0633 27.02 44.33 27.02C44.49 27.02 44.6367 27.02 44.77 27.02C44.93 26.9933 45.0633 26.9667 45.17 26.94C45.65 26.8333 46.0367 26.66 46.33 26.42C46.65 26.1533 46.9833 25.9267 47.33 25.74L47.49 25.66L47.45 25.54C47.9033 25.3 48.21 25.1533 48.37 25.1C48.53 25.02 48.65 24.9533 48.73 24.9C48.8367 24.7933 48.9567 24.74 49.09 24.74C49.4633 24.6867 49.8233 24.7933 50.17 25.06C50.5433 25.3 50.73 25.6067 50.73 25.98C50.73 26.14 50.61 26.3933 50.37 26.74C50.1567 27.0867 49.8767 27.4333 49.53 27.78C49.21 28.1 48.8767 28.3533 48.53 28.54C48.45 28.5667 48.37 28.6067 48.29 28.66C48.21 28.6867 48.13 28.7267 48.05 28.78H48.09C47.85 29.1 47.61 29.26 47.37 29.26H47.05C46.9433 29.4467 46.5967 29.6467 46.01 29.86C45.4233 30.1 44.85 30.22 44.29 30.22ZM46.37 20.58C46.61 20.58 46.8233 20.54 47.01 20.46C47.2233 20.38 47.4233 20.2867 47.61 20.18C48.25 19.7267 48.6633 19.14 48.85 18.42C49.0367 17.7 48.97 17.1533 48.65 16.78C48.5967 16.7 48.53 16.6467 48.45 16.62C48.37 16.5667 48.2767 16.54 48.17 16.54C47.8767 16.54 47.5433 16.6333 47.17 16.82C46.8233 17.0067 46.4767 17.2733 46.13 17.62C45.7833 17.9667 45.4633 18.38 45.17 18.86L44.65 19.7C44.7033 19.6733 44.7433 19.66 44.77 19.66C44.8233 19.6333 44.8633 19.62 44.89 19.62C45.13 19.62 45.29 19.7 45.37 19.86C45.45 20.02 45.5433 20.18 45.65 20.34C45.7833 20.5 46.0233 20.58 46.37 20.58ZM57.3294 31.9C56.0227 31.8733 55.1827 31.5 54.8094 30.78C54.4627 30.0867 54.3694 29.2067 54.5294 28.14C54.6894 27.6333 54.7827 27.18 54.8094 26.78C54.8627 26.3533 54.9827 26.0867 55.1694 25.98C55.1694 25.98 55.1827 25.94 55.2094 25.86C55.2627 25.78 55.2494 25.7 55.1694 25.62C55.1694 25.2733 55.2894 24.7933 55.5294 24.18C55.5827 24.02 55.6494 23.8333 55.7294 23.62C55.836 23.38 55.8894 23.26 55.8894 23.26C55.756 23.0467 55.756 22.8733 55.8894 22.74C56.0227 22.6067 56.156 22.4867 56.2894 22.38C56.4494 22.2467 56.4627 22.1 56.3294 21.94C56.276 21.8333 56.3427 21.5933 56.5294 21.22C56.716 20.82 56.9294 20.4067 57.1694 19.98C57.4094 19.5533 57.5694 19.22 57.6494 18.98C57.6494 18.9267 57.716 18.74 57.8494 18.42C57.9827 18.1 58.1427 17.7267 58.3294 17.3C58.516 16.8733 58.6894 16.4867 58.8494 16.14C59.036 15.7933 59.156 15.5667 59.2094 15.46C59.476 15.3267 59.3694 15.2333 58.8894 15.18C58.4094 15.1267 57.9027 15.1133 57.3694 15.14C56.5427 15.1133 55.876 15.0733 55.3694 15.02C54.8894 14.9667 54.4894 14.8467 54.1694 14.66C53.8494 14.2867 53.8094 13.8467 54.0494 13.34C54.2894 12.8067 54.676 12.5267 55.2094 12.5C55.556 12.4733 55.8227 12.46 56.0094 12.46C56.2227 12.46 56.4894 12.4467 56.8094 12.42C57.156 12.3667 57.6894 12.3 58.4094 12.22L60.4494 12.06L60.5694 11.38C60.7827 11.0333 60.9294 10.8067 61.0094 10.7C61.0894 10.5933 61.1427 10.4867 61.1694 10.38C61.196 10.2467 61.236 10.02 61.2894 9.7C61.2894 9.7 61.4094 9.48667 61.6494 9.06C61.8894 8.60667 62.036 8.14 62.0894 7.66C62.4094 7.12667 62.6894 6.64667 62.9294 6.22C63.1694 5.76667 63.316 5.48667 63.3694 5.38C63.8227 4.71333 64.2627 4.35333 64.6894 4.3C65.1427 4.24667 65.5694 4.35333 65.9694 4.62C66.2094 4.75333 66.436 4.92667 66.6494 5.14C66.8627 5.32666 66.996 5.58 67.0494 5.9C67.1027 6.19333 66.9827 6.58 66.6894 7.06C66.636 7.16666 66.556 7.36667 66.4494 7.66C66.3427 7.92667 66.2627 8.15333 66.2094 8.34C66.0494 8.52667 65.8494 8.83333 65.6094 9.26C65.396 9.66 65.2494 10.0733 65.1694 10.5C64.956 10.9533 64.8227 11.2333 64.7694 11.34C64.716 11.4467 64.636 11.5 64.5294 11.5C64.5827 11.7667 64.7427 11.9 65.0094 11.9C65.276 11.8733 65.716 11.8467 66.3294 11.82C66.836 11.7667 67.1827 11.7133 67.3694 11.66C67.5827 11.58 67.8227 11.6067 68.0894 11.74C68.2227 11.9267 68.2894 12.2067 68.2894 12.58C68.316 12.9267 68.276 13.2733 68.1694 13.62C68.0627 13.94 67.916 14.14 67.7294 14.22C67.596 14.22 67.316 14.3 66.8894 14.46C66.4894 14.5933 65.9827 14.6733 65.3694 14.7L63.2494 14.9L62.5694 16.26C62.3827 16.6067 62.2227 16.9267 62.0894 17.22C61.956 17.4867 61.8627 17.6467 61.8094 17.7C61.8094 17.86 61.716 18.1 61.5294 18.42C61.3694 18.74 61.196 19.0867 61.0094 19.46C60.8494 19.9133 60.6627 20.3267 60.4494 20.7C60.2627 21.0733 60.1694 21.26 60.1694 21.26C60.0627 21.26 60.0094 21.34 60.0094 21.5C60.1427 21.82 60.1027 22.06 59.8894 22.22C59.756 22.3 59.636 22.42 59.5294 22.58C59.4494 22.7133 59.4094 22.78 59.4094 22.78C59.516 22.8867 59.5294 23.02 59.4494 23.18C59.396 23.34 59.316 23.5133 59.2094 23.7C59.2094 23.9133 59.1427 24.22 59.0094 24.62C58.9027 25.02 58.7827 25.3933 58.6494 25.74C58.676 26.22 58.7027 26.5267 58.7294 26.66C58.756 26.7933 58.8227 26.8467 58.9294 26.82C59.0627 26.8467 59.2494 26.8467 59.4894 26.82C59.7294 26.7933 59.9027 26.78 60.0094 26.78C60.4094 26.5933 60.2227 27.5267 59.4494 29.58C59.0227 30.2467 58.596 30.7933 58.1694 31.22C57.7427 31.6733 57.4627 31.9 57.3294 31.9Z" fill="#095BA8"/>
<ellipse cx="88.5625" cy="17.5" rx="16.5625" ry="17.5" fill="#FFDD00"/>
<path d="M90.9912 23.1771C90.0391 22.9463 89.1164 22.7209 88.1972 22.4963C88.0061 23.161 88.0869 23.341 88.6394 23.5006C89.4952 23.7477 90.3382 24.0595 91.2366 24.1018C91.2837 24.104 91.3358 24.1151 91.353 24.2192C91.0814 24.2987 90.8035 24.2297 90.5408 24.2014C89.7546 24.1167 88.983 23.9397 88.2212 23.7104C87.9219 23.6203 87.7491 23.4769 87.7585 23.1209C87.7647 22.8902 87.7208 22.6581 87.69 22.325C87.5281 22.74 87.785 23.1061 87.5208 23.4951C87.2633 22.8804 87.3306 22.3076 87.3491 21.6667C88.2701 22.2101 89.2191 22.4309 90.1771 22.6168C91.0514 22.7864 91.935 22.8885 92.8204 22.9562C94.2494 23.0655 95.6804 23.1399 97.0991 22.8293C97.6559 22.7074 98.2057 22.5599 98.7155 22.2795C99.3959 21.9053 99.4177 21.8575 99.2243 21.015C98.8449 21.0619 98.4599 21.1158 98.0736 21.1561C96.2758 21.3439 94.4763 21.3379 92.6731 21.2443C91.5255 21.1847 90.3825 21.0997 89.2474 20.9129C88.7839 20.8366 88.3269 20.7289 87.8811 20.5685C87.6097 20.4709 87.4612 20.3024 87.4105 19.9867C87.2173 18.7862 87.1038 17.5744 87.0148 16.364C86.8624 14.2907 86.7258 12.2156 86.6615 10.1352C86.6318 9.17554 86.9364 8.94296 87.8843 8.95147C88.4004 8.9561 88.9159 9.04017 89.4315 9.08985C90.9946 9.24043 92.5425 9.49301 94.0709 9.87468C94.2377 9.91635 94.4029 9.96546 94.5916 9.94406C94.3736 9.87829 94.1573 9.8057 93.9375 9.74783C92.1383 9.27407 90.3023 9.02826 88.4742 8.72355C86.9494 8.4694 85.6945 9.05183 84.4764 9.88429C83.3652 10.6438 82.3145 11.4934 81.2345 12.2993C81.0389 12.4453 81.0343 12.8254 80.5986 12.7379C81.7571 13.4149 82.1695 14.5263 82.5553 15.6538C82.7942 16.352 82.9876 17.0699 83.4226 17.7752C83.1992 16.8173 82.9377 15.9668 82.6135 15.1348C82.2879 14.2989 81.9221 13.4892 81.3852 12.7755C81.552 12.5296 81.7818 12.4178 81.9786 12.2685C82.9427 11.5371 83.9143 10.8166 84.9391 10.1821C85.1622 10.0439 85.3985 9.92684 85.6363 9.81884C85.916 9.6918 86.0893 9.75059 86.1611 10.1156C86.4459 11.5631 86.6659 13.0218 86.7863 14.493C86.9858 16.9322 87.0052 19.3796 87.009 21.8266C87.0092 21.9372 87.0535 22.0601 86.9039 22.2126C86.7753 21.8186 86.7155 21.4449 86.6892 21.07C86.5307 18.8143 86.3967 16.5565 86.2225 14.3021C86.1451 13.3009 86.0493 12.2973 85.7953 11.3214C85.6489 10.7591 85.5465 10.6992 85.0448 10.9368C84.1294 11.3701 83.2624 11.8955 82.4266 12.4813C82.1778 12.6557 82.1034 12.7909 82.3292 13.0877C83.0414 14.024 83.3632 15.1594 83.6936 16.2857C83.8767 16.9099 84.0449 17.5401 84.2539 18.1545C84.6481 19.313 85.2228 20.354 86.1823 21.1827C85.8678 21.2854 85.6429 21.1589 85.4227 21.0888C84.7028 20.8597 84.1079 20.4165 83.6634 19.7802C83.3975 19.3997 83.0553 19.1819 82.6501 19.0375C82.1208 18.8488 81.5786 18.7297 81.0199 18.7092C80.2297 18.6803 79.4399 18.6787 78.6523 18.7755C78.5091 18.7931 78.3591 18.8318 78.1409 18.7107C79.5419 18.1759 80.9352 17.8103 82.3197 17.221C81.8988 16.2232 81.6622 15.1672 80.9065 14.3901C80.5245 13.9973 80.063 13.9366 79.5637 14.0444C78.5983 14.2527 77.7148 14.6898 76.8339 15.1355C76.6932 15.2067 76.5699 15.3285 76.4024 15.328C76.3389 15.2439 76.3995 15.1995 76.4453 15.1641C79.2592 12.9906 82.0384 10.7666 84.9518 8.7394C86.0541 7.97243 87.2234 7.81593 88.4915 7.98744C91.159 8.34824 93.768 8.94998 96.2653 10.0281C96.8004 10.2591 97.3431 10.4907 97.766 10.9389C97.8144 10.9903 97.8919 11.0291 97.9603 11.0386C99.0876 11.1946 100.008 12.3274 100.211 13.7769C100.337 14.6745 100.256 15.5799 100.278 16.4815C100.282 16.6701 100.206 16.7862 100.021 16.7879C99.5649 16.7922 99.1085 16.7925 98.6521 16.7881C98.4874 16.7866 98.4084 16.6835 98.4081 16.5103C98.4069 15.7903 98.4065 15.0704 98.4034 14.3504C98.4025 14.1336 98.5051 14.0448 98.7025 14.0501C98.8857 14.0549 99.0692 14.0511 99.2436 14.0511C99.4225 13.2911 98.9403 12.2223 98.2981 11.9502C98.3042 12.3435 98.4826 12.6835 98.5307 13.0515C98.5491 13.1928 98.6044 13.3283 98.6288 13.4693C98.6513 13.5993 98.7411 13.7696 98.5401 13.8259C98.3653 13.875 98.3054 13.7195 98.2537 13.5854C98.1931 13.4281 98.1272 13.2699 98.0921 13.1053C97.8584 12.0098 97.208 11.3991 96.1963 11.0918C94.1036 10.4559 91.9815 9.98865 89.8254 9.68651C89.3733 9.62315 88.9174 9.58843 88.4629 9.54573C88.1171 9.51325 87.7818 9.52792 87.5032 9.82784C87.6716 9.99205 87.867 9.98873 88.0371 10.0477C89.3259 10.4948 90.154 11.624 90.1994 13.0609C90.2263 13.9109 90.203 14.7626 90.2124 15.6134C90.2152 15.8596 90.1374 15.972 89.893 15.9669C89.3744 15.9561 88.8554 15.956 88.3368 15.9658C88.0881 15.9706 88.0155 15.8421 88.0169 15.6047C88.0215 14.8192 88.0273 14.0336 88.0147 13.2484C88.0099 12.9514 88.1243 12.8414 88.3892 12.8725C88.4014 12.8739 88.4139 12.873 88.4262 12.873C89.1829 12.8707 89.2112 12.8105 88.9573 12.0222C88.7126 11.2624 87.8791 10.5596 87.4123 10.6275C87.4123 11.3481 87.3761 12.0646 87.4194 12.7756C87.5291 14.575 87.6969 16.3696 87.9072 18.1593C87.9514 18.5348 88.0276 18.9076 88.0481 19.2842C88.0667 19.6249 88.2422 19.7631 88.5186 19.8442C89.3447 20.0865 90.1951 20.1521 91.042 20.2309C93.1479 20.4268 95.2589 20.4765 97.3706 20.3894C98.1299 20.3581 98.9058 20.3703 99.6292 19.9963C99.8133 20.1544 99.8249 20.3789 99.8474 20.5945C100.018 22.2303 99.8941 23.8625 99.7557 25.4903C99.6766 26.4221 99.0242 27.011 98.0211 27.1096C95.4153 27.3657 92.8078 27.6045 90.186 27.5107C89.3947 27.4824 88.6092 27.3948 87.8522 27.1299C87.5014 27.0071 87.1587 26.8609 86.9213 26.4691C87.1264 26.4061 87.3024 26.4489 87.4775 26.4765C89.7076 26.8278 91.9484 26.8944 94.1984 26.7906C95.5321 26.729 96.859 26.6266 98.1612 26.2983C98.8788 26.1175 99.1782 25.7164 99.2031 24.9387C99.2106 24.7033 99.2084 24.4675 99.2094 24.2318C99.2103 23.9982 99.2096 23.7645 99.2096 23.5032C98.8376 23.6211 98.5378 23.9801 98.0779 23.9767C98.5242 23.5731 99.3238 23.4556 99.136 22.4921C98.7389 22.6816 98.3459 22.829 97.9949 23.0511C97.767 23.1953 97.8179 23.5271 97.7856 23.7748C97.7477 24.0644 97.6393 24.1872 97.3737 24.2786C95.8167 24.8139 94.2317 24.7312 92.6399 24.5695C92.5172 24.5571 92.395 24.5322 92.2721 24.5283C92.0125 24.5201 91.8286 24.4087 91.724 24.1458C91.6331 23.9171 91.519 23.6989 91.4212 23.4731C91.3413 23.2886 91.2159 23.1836 90.9912 23.1771Z" fill="white"/>
<path d="M110.565 28.22C110.352 28.0067 110.192 27.74 110.085 27.42C110.005 27.1 109.978 26.78 110.005 26.46C110.032 26.14 110.098 25.8733 110.205 25.66C110.205 25.4467 110.232 25.2867 110.285 25.18C110.365 25.0467 110.392 24.9267 110.365 24.82C110.338 24.7133 110.365 24.5267 110.445 24.26C110.525 23.9933 110.605 23.74 110.685 23.5C110.872 23.0733 111.072 22.5667 111.285 21.98C111.498 21.3667 111.698 20.7667 111.885 20.18C112.072 19.5933 112.232 19.0867 112.365 18.66C112.498 18.2333 112.578 17.9667 112.605 17.86C112.605 17.54 112.818 17.3667 113.245 17.34C113.565 17.2333 113.805 17.2333 113.965 17.34C114.125 17.42 114.338 17.6733 114.605 18.1C114.818 18.3133 114.898 18.6333 114.845 19.06C114.792 19.4867 114.618 20.02 114.325 20.66C114.218 20.8733 114.085 21.18 113.925 21.58C113.792 21.98 113.698 22.34 113.645 22.66C113.538 22.8733 113.405 23.18 113.245 23.58C113.112 23.9533 112.992 24.3133 112.885 24.66C112.832 24.7933 112.778 24.9933 112.725 25.26C112.672 25.5 112.605 25.7667 112.525 26.06C112.445 26.3267 112.338 26.5667 112.205 26.78C111.965 27.8733 111.738 28.5133 111.525 28.7C111.338 28.8867 111.018 28.7267 110.565 28.22ZM114.445 11.98C114.312 11.8467 114.192 11.66 114.085 11.42C113.978 11.1533 113.912 10.9133 113.885 10.7C113.858 10.46 113.885 10.34 113.965 10.34C114.178 10.3133 114.432 10.0867 114.725 9.66C115.018 9.23333 115.138 8.86 115.085 8.54C115.085 8.43333 115.125 8.34 115.205 8.26C115.285 8.15333 115.378 8.08667 115.485 8.06C115.805 7.84667 116.112 7.82 116.405 7.98C116.725 8.11333 117.018 8.39333 117.285 8.82C117.525 9.32667 117.592 9.75333 117.485 10.1C117.378 10.42 117.085 10.8733 116.605 11.46C116.205 11.9933 115.832 12.2867 115.485 12.34C115.165 12.3933 114.818 12.2733 114.445 11.98ZM128.066 30.26C127.719 30.34 127.426 30.2867 127.186 30.1C126.973 29.94 126.813 29.7 126.706 29.38C126.493 28.7667 126.333 28.1 126.226 27.38C126.146 26.6333 126.133 25.98 126.186 25.42L126.266 24.58L124.706 25.82C123.799 26.62 122.919 27.1933 122.066 27.54C121.239 27.8867 120.506 28.06 119.866 28.06C119.573 28.0067 119.279 27.9 118.986 27.74C118.693 27.58 118.426 27.38 118.186 27.14C117.973 26.9 117.799 26.6467 117.666 26.38C117.506 26.0067 117.453 25.5 117.506 24.86C117.586 24.22 117.746 23.5267 117.986 22.78C118.253 22.0067 118.573 21.26 118.946 20.54C119.346 19.7933 119.799 19.14 120.306 18.58C121.186 17.2467 122.133 16.4333 123.146 16.14C124.159 15.8467 125.159 15.9933 126.146 16.58C126.839 16.8733 127.266 17.0067 127.426 16.98C127.613 16.9533 127.773 16.6467 127.906 16.06C128.013 15.6333 128.119 15.2067 128.226 14.78C128.333 14.3267 128.506 13.7267 128.746 12.98C129.413 10.9533 129.986 9.36667 130.466 8.22C130.973 7.07333 131.426 6.07333 131.826 5.22C132.119 4.60666 132.359 4.23333 132.546 4.1C132.759 3.94 132.973 3.87333 133.186 3.9C133.479 3.9 133.746 4.00667 133.986 4.22C134.226 4.43333 134.413 4.72667 134.546 5.1C134.653 5.34 134.693 5.55333 134.666 5.74C134.666 5.9 134.586 6.12667 134.426 6.42C134.079 7.06 133.666 7.91333 133.186 8.98C132.733 10.02 132.266 11.1667 131.786 12.42C131.333 13.6733 130.906 14.9133 130.506 16.14C130.106 17.3667 129.773 18.4467 129.506 19.38C129.346 19.9667 129.199 20.7133 129.066 21.62C128.959 22.5267 128.866 23.46 128.786 24.42C128.706 25.3533 128.653 26.1933 128.626 26.94C128.626 27.66 128.653 28.1267 128.706 28.34C128.866 28.8733 128.933 29.2733 128.906 29.54C128.906 29.8067 128.839 29.98 128.706 30.06C128.573 30.1667 128.359 30.2333 128.066 30.26ZM121.306 25.82C121.679 25.74 122.039 25.5933 122.386 25.38C122.759 25.1667 123.146 24.9133 123.546 24.62C124.346 24.0067 125.039 23.4467 125.626 22.94C126.213 22.4333 126.599 21.66 126.786 20.62C126.839 20.1133 126.786 19.7133 126.626 19.42C126.493 19.1 126.266 18.8067 125.946 18.54C125.626 18.3267 125.186 18.2467 124.626 18.3C124.093 18.3267 123.533 18.6067 122.946 19.14C122.306 19.7267 121.679 20.5133 121.066 21.5C120.479 22.4867 120.039 23.7 119.746 25.14C119.693 25.4067 119.773 25.62 119.986 25.78C120.199 25.94 120.639 25.9533 121.306 25.82Z" fill="#095BA8"/>
</svg>
